<mxfile host="app.diagrams.net" modified="2024-01-20T13:08:52.586Z" agent="Mozilla/5.0 (Windows NT 10.0; Win64; x64; rv:121.0) Gecko/20100101 Firefox/121.0" version="22.1.21" etag="SN00m5t3HIqsParJa1Za" type="github">
  <diagram name="Page-1" id="H6_WFvMR_M4tckYqWNQz">
    <mxGraphModel>
      <root>
        <mxCell id="0" />
        <mxCell id="1" parent="0" />
      </root>
    </mxGraphModel>
  </diagram>
</mxfile>
